Coordinates
version=1
nRows=17
nColumns=24
inDegrees=yes

Units are S.I. units (second, meters, Newtons, ...)
Angles are in degrees.

endheader
time	pelvis_tilt	pelvis_list	pelvis_rotation	pelvis_tx	pelvis_ty	pelvis_tz	hip_flexion_r	hip_adduction_r	hip_rotation_r	knee_angle_r	ankle_angle_r	subtalar_angle_r	mtp_angle_r	hip_flexion_l	hip_adduction_l	hip_rotation_l	knee_angle_l	ankle_angle_l	subtalar_angle_l	mtp_angle_l	lumbar_extension	lumbar_bending	lumbar_rotation
      0.96166667	     -0.55282087	     -3.72206175	      3.61681858	     -0.35372683	      1.01101370	      0.35982609	      8.19018879	      6.05043067	     -1.45275619	    -16.71834397	     11.03600758	    -11.45559557	     -6.23179177	     14.93874740	     -4.44374506	      2.41380420	    -67.09094436	      0.50426389	     -9.96637524	     -2.95921005	    -10.91743532	     13.82726654	     -3.20537954
      0.96583333	     -0.54589069	     -3.53378863	      3.50727532	     -0.34922840	      1.01186063	      0.36037054	      7.66955415	      5.89721718	     -1.40973474	    -16.26263870	     11.04792910	    -11.29099540	     -6.22826105	     15.41936666	     -4.24419316	      2.30141384	    -66.66642320	      1.17693477	     -9.68677748	     -2.99187787	    -11.00153116	     13.55597469	     -3.01295599
      0.97000000	     -0.52001124	     -3.34998819	      3.39706210	     -0.34473370	      1.01270495	      0.36089933	      7.12864732	      5.74540565	     -1.37891560	    -15.80236037	     11.06421648	    -11.12046497	     -6.22206479	     15.86782979	     -4.05150796	      2.19455519	    -66.19461682	      1.82554376	     -9.37703123	     -3.02887079	    -11.10829278	     13.28518592	     -2.80795312
      0.97416667	     -0.49858573	     -3.17585228	      3.28531711	     -0.34022467	      1.01348170	      0.36142598	      6.59600014	      5.60125074	     -1.36110469	    -15.34833702	     11.10084111	    -10.94117093	     -6.21148628	     16.31403609	     -3.87754079	      2.07775344	    -65.68999270	      2.44691241	     -9.06398592	     -3.07721329	    -11.18807409	     13.02862368	     -2.58621139
      0.97833333	     -0.48046961	     -2.99507443	      3.17909263	     -0.33574512	      1.01422058	      0.36191964	      6.07295364	      5.44506950	     -1.34511786	    -14.90245197	     11.11850597	    -10.75410023	     -6.19893365	     16.75631168	     -3.68554441	      1.98403125	    -65.14538970	      3.02376477	     -8.76607054	     -3.12244101	    -11.28469423	     12.77047960	     -2.41061120
      0.98250000	     -0.45479448	     -2.83098916	      3.07259581	     -0.33125886	      1.01491803	      0.36240074	      5.54383925	      5.30415106	     -1.34608403	    -14.45545722	     11.12796162	    -10.56525295	     -6.18247717	     17.18299978	     -3.51758175	      1.88705144	    -64.56775128	      3.58578745	     -8.44818594	     -3.17008993	    -11.37822725	     12.52408865	     -2.23181041
      0.98666667	     -0.46420728	     -2.64713134	      2.96818171	     -0.32678169	      1.01553340	      0.36284946	      5.06458439	      5.13399728	     -1.36607925	    -14.03220813	     11.09369226	    -10.38213012	     -6.17229527	     17.63578298	     -3.31636446	      1.80441095	    -63.94609411	      4.07364976	     -8.20276294	     -3.19036992	    -11.42277545	     12.26468743	     -2.13532057
      0.99083333	     -0.41969200	     -2.49493202	      2.86425506	     -0.32231485	      1.01613929	      0.36330504	      4.52319939	      5.00190388	     -1.36657679	    -13.60108781	     11.18557502	    -10.14492554	     -6.14446071	     18.02745036	     -3.16227788	      1.72524954	    -63.30546917	      4.57962631	     -7.83994593	     -3.24196527	    -11.55235815	     12.04473219	     -1.91000619
      0.99500000	     -0.43956954	     -2.33819675	      2.76696614	     -0.31784684	      1.01663898	      0.36371743	      4.06046950	      4.85558798	     -1.39791337	    -13.18038641	     11.15221223	     -9.96061668	     -6.13073939	     18.47996854	     -2.98899004	      1.66204043	    -62.62415825	      4.99563719	     -7.59972951	     -3.26219147	    -11.58106293	     11.81153231	     -1.81649987
      0.99916667	     -0.42159530	     -2.17663743	      2.66347073	     -0.31337440	      1.01713220	      0.36411689	      3.56150335	      4.70409301	     -1.41928038	    -12.77617814	     11.19556022	     -9.74529435	     -6.10948988	     18.87383794	     -2.81170314	      1.60693760	    -61.90213070	      5.40885280	     -7.28582009	     -3.28761361	    -11.66084143	     11.60640250	     -1.66568341
      1.00333333	     -0.36193302	     -2.04604324	      2.56769918	     -0.30890176	      1.01763536	      0.36451737	      3.00769414	      4.58815127	     -1.44649398	    -12.34604674	     11.27820966	     -9.50408976	     -6.07351878	     19.22141502	     -2.67890113	      1.54936108	    -61.16052614	      5.78206991	     -7.00232479	     -3.33294348	    -11.80011261	     11.39629196	     -1.46516673
      1.00750000	     -0.37142273	     -1.89845939	      2.46519466	     -0.30442454	      1.01800807	      0.36488162	      2.54423103	      4.44535164	     -1.47628672	    -11.94904417	     11.27813610	     -9.30112161	     -6.05021874	     19.62646430	     -2.51145602	      1.50824441	    -60.37425056	      6.08933709	     -6.78683017	     -3.35786223	    -11.83438389	     11.20143631	     -1.35706218
      1.01166667	     -0.32262483	     -1.76045487	      2.36756428	     -0.29995350	      1.01840005	      0.36524213	      2.01466349	      4.31403233	     -1.51832067	    -11.54651778	     11.37532185	     -9.04314601	     -6.00663055	     19.96081288	     -2.36302064	      1.46799189	    -59.56323774	      6.38505734	     -6.54891861	     -3.40166328	    -11.96117472	     10.98704175	     -1.17602234
      1.01583333	     -0.30130566	     -1.62790872	      2.26879089	     -0.29547895	      1.01870937	      0.36557682	      1.52162871	      4.18446154	     -1.55931106	    -11.15706418	     11.43406450	     -8.80246901	     -5.96207265	     20.31369914	     -2.21400977	      1.44067018	    -58.72009741	      6.63051532	     -6.36061950	     -3.44321965	    -12.04264289	     10.79644774	     -1.03148691
      1.02000000	     -0.27455580	     -1.49613752	      2.16913278	     -0.29099860	      1.01899600	      0.36589768	      1.02321407	      4.05415482	     -1.60038724	    -10.76840906	     11.49412151	     -8.56247607	     -5.91599055	     20.64625333	     -2.06362210	      1.42279230	    -57.84075169	      6.84042044	     -6.19447241	     -3.48214316	    -12.12922341	     10.60796836	     -0.89541168
      1.02416667	     -0.27658871	     -1.37056738	      2.06659715	     -0.28651941	      1.01918666	      0.36620492	      0.56459637	      3.92733238	     -1.63667009	    -10.39703476	     11.52017871	     -8.34802963	     -5.88461196	     20.99941279	     -1.91703808	      1.41446085	    -56.93435891	      7.02109319	     -6.04875827	     -3.50495619	    -12.16896121	     10.44085599	     -0.79395095
      1.02833333	     -0.24901170	     -1.24787049	      1.96318906	     -0.28203717	      1.01938135	      0.36650477	      0.07037884	      3.80329040	     -1.66830185	    -10.01818881	     11.58682065	     -8.10935995	     -5.85004681	     21.30646178	     -1.77556158	      1.41206035	    -55.99450974	      7.16910241	     -5.93255853	     -3.52799094	    -12.25201069	     10.26921477	     -0.66271261
